<?xml version="1.0" encoding="UTF-8"?>
<svg id="Layer_1" data-name="Layer 1" xmlns="http://www.w3.org/2000/svg" viewBox="0 0 30 30">
  <defs>
    <style>
      .cls-1 {
        opacity: .21;
      }

      .cls-1, .cls-2 {
        fill: #ffb36f;
      }

      .cls-3 {
        fill: #fefefe;
      }
    </style>
  </defs>
  <path class="cls-1" d="M2.19,13.92c.2-5.74,4.86-10.52,10.39-11.54,1.48-.27,3.68-.27,5.15.03,4.79.97,8.82,5,9.84,9.77.36,1.68.32,4.21-.09,5.87-1.3,5.28-5.95,9.62-11.51,9.75h-.4c-.08-.04-.17-.04-.25,0h-.7c-.09-.04-.2-.04-.3,0h-.4c-6-.27-11.44-5.54-11.74-11.69v-.2l.05-.1s-.04-.05-.05-.1v-.2c.04-.09.04-.2,0-.3v-.4c.04-.09.04-.2,0-.3v-.25s.01-.06,0-.1c0-.08,0-.17,0-.25Z"/>
  <path class="cls-2" d="M5.03,14.16c.16-4.46,3.78-8.19,8.09-8.98,1.15-.21,2.86-.21,4.01.02,3.73.75,6.86,3.89,7.66,7.61.28,1.31.25,3.27-.07,4.57-1.01,4.11-4.63,7.48-8.96,7.59h-.31c-.06-.03-.13-.03-.19,0h-.54c-.07-.03-.16-.03-.23,0h-.31c-4.67-.21-8.91-4.31-9.14-9.1v-.16l.04-.08s-.03-.04-.04-.08v-.16c.03-.07.03-.16,0-.23v-.31c.03-.07.03-.16,0-.23v-.19s.01-.05,0-.08c0-.06,0-.13,0-.19Z"/>
  <path class="cls-3" d="M16.59,14.97h-4.37c-.37,0-.84.56-.83.93.07.98-.1,2.1,0,3.07.05.5.42.89.93.93,1.69.15,3.58-.11,5.3,0,.5-.05.86-.41.92-.9-.07-.99.11-2.16,0-3.13-.06-.51-.49-.91-1.01-.9-.07-1.29.29-2.61-.64-3.66-1.15-1.31-3.3-1.09-4.15.43-.43.76-.33,1.55-.32,2.39.04.28.78.24.89.09s.03-1.06.05-1.33c.12-1.34,1.72-1.99,2.71-1.06.23.21.52.72.52,1.03v2.11Z"/>
</svg>