<?xml version="1.0" encoding="UTF-8"?>
<svg id="Layer_1" data-name="Layer 1" xmlns="http://www.w3.org/2000/svg" viewBox="0 0 30 30">
  <defs>
    <style>
      .cls-1 {
        opacity: .22;
      }

      .cls-1, .cls-2 {
        fill: #5eac24;
      }

      .cls-3 {
        fill: #fefefe;
      }

      .cls-2 {
        opacity: .54;
      }
    </style>
  </defs>
  <path class="cls-1" d="M2.19,13.92c.2-5.74,4.86-10.52,10.39-11.54,1.48-.27,3.68-.27,5.15.03,4.79.97,8.82,5,9.84,9.77.36,1.68.32,4.21-.09,5.87-1.3,5.28-5.95,9.62-11.51,9.75h-.4c-.08-.04-.17-.04-.25,0h-.7c-.09-.04-.2-.04-.3,0h-.4c-6-.27-11.44-5.54-11.74-11.69v-.2l.05-.1s-.04-.05-.05-.1v-.2c.04-.09.04-.2,0-.3v-.4c.04-.09.04-.2,0-.3v-.25s.01-.06,0-.1c0-.08,0-.17,0-.25Z"/>
  <path class="cls-2" d="M5.03,14.16c.16-4.46,3.78-8.19,8.09-8.98,1.15-.21,2.86-.21,4.01.02,3.73.75,6.86,3.89,7.66,7.61.28,1.31.25,3.27-.07,4.57-1.01,4.11-4.63,7.48-8.96,7.59h-.31c-.06-.03-.13-.03-.19,0h-.54c-.07-.03-.16-.03-.23,0h-.31c-4.67-.21-8.91-4.31-9.14-9.1v-.16l.04-.08s-.03-.04-.04-.08v-.16c.03-.07.03-.16,0-.23v-.31c.03-.07.03-.16,0-.23v-.19s.01-.05,0-.08c0-.06,0-.13,0-.19Z"/>
  <path class="cls-3" d="M18.47,15.99c.02-.36-.45-.91-.81-.91h-.17v-1.47c0-.59-.03-1.15-.33-1.69-.83-1.49-2.94-1.7-4.06-.42-.91,1.03-.56,2.32-.63,3.58-.51-.01-.93.38-.99.88-.11.95.07,2.09,0,3.06.07.48.42.83.9.88,1.67-.11,3.53.14,5.18,0,.49-.04.86-.42.91-.91.09-.95-.07-2.04,0-3ZM13.39,15.08v-2.06c0-.3.29-.8.51-1.01.98-.91,2.54-.27,2.66,1.04.01.11,0,.34,0,.57,0,.01,0,.03,0,.04v.46s.02.96.02.96h-3.18Z"/>
</svg>